<?xml version="1.0" encoding="utf-8"?>
<svg version="1.1"
     id="Layer_1"
     xmlns="http://www.w3.org/2000/svg"
     xmlns:xlink="http://www.w3.org/1999/xlink"
     x="0px"
     y="0px"
     width="122.88px"
     height="122.88px"
     viewBox="0 0 122.88 122.88"
     enable-background="new 0 0 122.88 122.88"
     xml:space="preserve">
	<g>
		<path fill="#A1000E" fill-rule="evenodd"
		      clip-rule="evenodd"
		      d="M12.996,0h96.888c7.147,0,12.993,5.851,12.993,12.999l0.003,96.883 c0,7.147-5.851,12.998-12.999,12.998l-96.885-0.002C5.848,122.878,0,117.032,0,109.884V12.996C0,5.849,5.848,0.002,12.996,0 L12.996,0z M20.602,78.674h81.675c1.52,0,2.756,1.115,2.756,2.479l0.002,18.713c0,1.36-1.24,2.477-2.758,2.477l-81.675-0.003 c-1.52,0-2.758-1.111-2.758-2.474V81.149C17.844,79.787,19.083,78.676,20.602,78.674L20.602,78.674z"/>
	</g>
</svg>